# xmcd
#
# Track frame offsets:
#	150
#	15808
#	34446
#	48056
#	64410
#	82966
#	99287
#	117369
#	138217
#	153875
#	172513
#	186123
#	202477
#	221033
#	237354
#	255436
#	287534
#
# Disc length: 4179 seconds
#
# Revision: 1
# Processed by: cddbd v1.5.2PL0 Copyright (c) Steve Scherf et al.
# Submitted via: audiograbber 1.83.01
#
DISCID=dd105111
DTITLE=Best Of Winter 2007 Country Vol 1 - ASK82001
DYEAR=2007
DGENRE=Karaoke
TTITLE0=Little Big Town - Good As Gone
TTITLE1=Monroe, Ashley - I Don't Want To
TTITLE2=Strait, George - It Just Comes Natural
TTITLE3=McGraw, Tim - My Little Girl
TTITLE4=Rascal Flatts - My Wish
TTITLE5=Wreckers, The - My, Oh My
TTITLE6=Chesney, Kenny - You Save Me
TTITLE7=Evans, Sara - You'll Always Be My Baby
TTITLE8=Little Big Town - Good As Gone w/ Vocals
TTITLE9=Monroe, Ashley - I Don't Want To w/ Vocals
TTITLE10=Strait, George - It Just Comes Natural w/ Vocals
TTITLE11=McGraw, Tim - My Little Girl w/ Vocals
TTITLE12=Rascal Flatts - My Wish w/ Vocals
TTITLE13=Wreckers, The - My, Oh My w/ Vocals
TTITLE14=Chesney, Kenny - You Save Me w/ Vocals
TTITLE15=Evans, Sara - You'll Always Be My Baby w/ Vocals
TTITLE16=Data Track - Data Track
EXTD=
EXTT0=
EXTT1=
EXTT2=
EXTT3=
EXTT4=
EXTT5=
EXTT6=
EXTT7=
EXTT8=
EXTT9=
EXTT10=
EXTT11=
EXTT12=
EXTT13=
EXTT14=
EXTT15=
EXTT16=
PLAYORDER=
